<svg width="24" height="15" viewBox="0 0 24 15" fill="none" xmlns="http://www.w3.org/2000/svg">
<path fill-rule="evenodd" clip-rule="evenodd" d="M15.0383 1.28637V2.68225H20.9941V1.28637H15.0383ZM0 0.559814L6.87284 0.631176C6.87284 0.631176 10.647 0.444559 11.1672 3.25383C11.6874 6.06311 9.26875 6.72683 9.26875 6.72683C9.26875 6.72683 12.2558 7.36288 11.8399 10.6442C11.4239 13.9256 7.34505 13.9594 7.34505 13.9594H0V0.559814ZM3.12679 5.89279L5.97089 5.90943C6.15291 5.90943 6.63146 5.89455 7.02509 5.80742C7.19358 5.77013 7.52147 5.66404 7.74785 5.47268C7.84185 5.39323 8.01502 5.16937 8.11495 4.90407C8.21207 4.64622 8.23731 4.34734 8.23731 4.23267C8.23731 4.02272 8.19653 3.82838 8.11495 3.64964C8.03337 3.4709 7.91101 3.31627 7.74785 3.18576C7.5847 3.05525 7.37721 2.95312 7.12538 2.87935C6.87356 2.80559 6.57386 2.7687 6.22627 2.7687L3.12679 2.75207V5.89279ZM3.12679 11.5277L6.23414 11.5461C6.433 11.5461 6.95585 11.5296 7.38591 11.4333C7.56999 11.3921 7.92823 11.2749 8.17557 11.0634C8.27827 10.9755 8.46746 10.7281 8.57664 10.4349C8.68275 10.1499 8.71033 9.81958 8.71033 9.69284C8.71033 9.46079 8.66577 9.24599 8.57664 9.04844C8.48751 8.85088 8.35382 8.67998 8.17557 8.53574C7.99731 8.39149 7.77062 8.2786 7.49549 8.19707C7.22035 8.11554 6.89291 8.07478 6.51315 8.07478L3.12679 8.05639V11.5277ZM15.6951 9.74293C15.6996 9.82097 15.6951 11.7455 17.377 12.1875C19.3297 12.7007 20.2 11.1801 20.2675 11.0039H22.8252C22.759 11.2927 21.7193 15.2244 16.0626 13.943C12.5902 13.1564 12.7688 9.30198 12.7688 8.97189C12.7688 8.66786 12.7827 7.05085 14.182 5.55969C15.5812 4.06854 17.5733 4.06854 17.9767 4.06854C18.3802 4.06854 20.4549 4.06854 21.7193 5.38446C23.3554 7.08708 23.0309 9.81526 23.0309 9.81526L15.6951 9.74293ZM20.1752 8.05639C20.1554 7.75473 20.0909 7.47674 19.9819 7.22241C19.8728 6.96807 19.7224 6.74775 19.5307 6.56144C19.339 6.37512 19.1093 6.22873 18.8416 6.12227C18.5739 6.0158 18.2748 5.96257 17.9443 5.96257C17.6469 5.96257 17.3709 6.01876 17.1164 6.13114C16.8619 6.24352 16.6388 6.39582 16.4471 6.58805C16.2554 6.78028 16.1018 7.00208 15.9861 7.25346C15.8704 7.50484 15.8026 7.77248 15.7828 8.05639H20.1752Z" fill="white"/>
</svg>
