<svg width="17" height="15" viewBox="0 0 17 15" fill="none" xmlns="http://www.w3.org/2000/svg">
<path d="M1.87522 3.54419C2.87938 3.54419 3.69341 2.78102 3.69341 1.8396C3.69341 0.898181 2.87938 0.13501 1.87522 0.13501C0.871066 0.13501 0.0570374 0.898181 0.0570374 1.8396C0.0570374 2.78102 0.871066 3.54419 1.87522 3.54419Z" fill="white"/>
<path d="M3.69341 5.24878H0.0570374V14.6238H3.69341V5.24878Z" fill="white"/>
<path d="M12.3293 4.60938C11.7166 4.61094 11.1121 4.74234 10.5611 4.99374C10.0101 5.24515 9.52689 5.61006 9.1475 6.06119V5.24859H5.51114V14.6238H9.1475V8.65775C9.1475 8.20567 9.33906 7.7721 9.68004 7.45243C10.021 7.13276 10.4835 6.95317 10.9657 6.95317C11.4479 6.95317 11.9104 7.13276 12.2513 7.45243C12.5923 7.7721 12.7839 8.20567 12.7839 8.65775V14.6238H16.4202V8.44468C16.4202 7.42749 15.9892 6.45197 15.222 5.73271C14.4548 5.01345 13.4143 4.60938 12.3293 4.60938V4.60938Z" fill="white"/>
</svg>
