<svg width="23" height="17" viewBox="0 0 23 17" fill="none" xmlns="http://www.w3.org/2000/svg">
<path d="M6.97561 16.7588C15.2775 16.7588 19.8183 10.3106 19.8183 4.71879C19.8183 4.53567 19.8183 4.35335 19.8051 4.17183C20.6885 3.57278 21.451 2.83113 22.057 1.98148C21.2333 2.32369 20.3593 2.54806 19.4646 2.64724C20.4066 2.11857 21.1121 1.2864 21.4489 0.306715C20.563 0.799578 19.5936 1.14698 18.5828 1.33385C17.7294 0.483034 16.5374 0 15.2917 0C12.8132 0 10.7737 1.91199 10.7737 4.23552C10.7737 4.55786 10.813 4.8792 10.8907 5.19317C7.26337 5.02273 3.87906 3.41423 1.58823 0.772024C0.396963 2.69457 1.01335 5.18608 2.98566 6.42075C2.26744 6.40081 1.56464 6.21914 0.937037 5.89111V5.94473C0.937639 7.95139 2.46015 9.69552 4.55823 10.0928C3.89376 10.2627 3.19642 10.2875 2.52018 10.1654C3.11001 11.8849 4.81089 13.0702 6.73713 13.1041C5.13912 14.2814 3.16398 14.921 1.13151 14.9191C0.772381 14.9184 0.413592 14.898 0.0570374 14.858C2.121 16.0997 4.52321 16.7585 6.97561 16.7555" fill="white"/>
</svg>
